<svg id="Слой_1" data-name="Слой 1" xmlns="http://www.w3.org/2000/svg" xmlns:xlink="http://www.w3.org/1999/xlink" viewBox="0 0 9961.17 1467.7"><defs><style>.cls-1{fill:url(#Безымянный_градиент);}.cls-2{fill:#fff;}.cls-3{fill:#bec1c4;}.cls-4{fill:#171819;}</style><linearGradient id="Безымянный_градиент" x1="3132.4" y1="1621.74" x2="919.84" y2="414.17" gradientTransform="matrix(1, 0, 0, -1, 0, 1910)" gradientUnits="userSpaceOnUse"><stop offset="0" stop-color="#176dea"/><stop offset="1" stop-color="#2f59ca"/></linearGradient></defs><path class="cls-1" d="M1446.47,206.29h2.41c10.77,3,19.87,9.51,29.35,15q128,74.37,256,148.59,68,39.57,136.17,78.87c6.45,3.73,8.84,8.16,8.81,15.44-.19,65.52-.11,131-.1,196.54v4.83c.07,8.7.13,8.41,8.62,9.1,23.6,1.93,47.23,3.68,70.84,5.52,23,1.8,46,3.63,69.06,5.34,18.22,1.35,36.43,2.85,54.64,4.25,17.62,1.35,35.23,2.77,52.84,4.14,9.41.73,18.82,1.44,28.22,2.24,9.23.77,9.64.17,9.64-8.88,0-61.7.12-123.4-.15-185.09,0-8.17,2.44-13.07,9.73-17.33,60.46-35.56,121.09-70.81,181.55-106.37,5.56-3.28,10-3.22,15.54,0,66.12,38.57,132.25,77.29,198.65,115.33,98,56.13,195.19,113.72,293.08,170.08q93,53.55,185.68,107.65a18.67,18.67,0,0,1,5.79,5.15V1311c-1.23,2.47-3.39,3.85-5.68,5.19-35.52,20.88-71.25,41.42-106.75,62.28-3.76,2.22-7.69,3.6-12,3.15-21.17-2.17-42.44-3.18-63.62-5.34-17.77-1.81-35.62-2.8-53.44-4.2-23.62-1.83-47.24-3.59-70.84-5.52-18-1.48-36-2.76-54.05-4.15-18.61-1.44-37.23-2.8-55.83-4.34-9.61-.77-19.23-1.54-28.84-2.21-3-.2-4,1.15-4.05,3.78-.08,2-.06,4-.06,6,0,64.72-.12,129.43.15,194.15,0,8.46-2.8,13.42-10.25,17.74q-78.26,45.36-156.32,91c-5.56,3.27-10.12,3.27-15.63,0-51.88-30.33-103.71-60.75-155.84-90.63-64.5-37-128.52-74.84-193.07-111.77-62.1-35.53-123.61-72.09-185.65-107.72-7.32-4.21-14.93-7.91-22-12.51-4.19-2.73-7.89-2.59-12.3,0-33.83,19.77-67.79,39.35-101.63,59.13q-105.42,61.61-211,122.85-93.88,54.45-187.62,109.12c-17.55,10.21-35.16,20.31-52.65,30.62a55.41,55.41,0,0,1-14.2,6.3h-1.2c-16.75-6.92-31.75-17.15-47.34-26.15q-122.52-70.93-244.93-142.08l-114.11-66.25c-3.15-1.83-7.31-3-7.34-7.91q-.09-405.64-.06-811.27c0-3.36.77-6.87-1.17-10v-70c7.41-6.59,16.2-11.13,24.66-16.05,36.43-21.27,72.68-42.86,109.27-63.87,62.2-35.7,123.72-72.56,185.94-108.3,41.45-23.84,82.4-48.54,124-72.08,40.54-23,80.4-47.09,120.84-70.27C1440.87,208.27,1443.92,207.94,1446.47,206.29Z" transform="translate(-873.49 -206.29)"/><path class="cls-2" d="M1259,1586.05c-2.6,0-4.13-1.53-5.79-2.46q-42.24-24.45-84.42-49L942.13,1403.05c-8.81-5.12-7.12-2.34-7.12-12.46Q935,1022.78,935,655c0-2.67-1-5.52.77-8.05,2.75.17,4.69,2.08,6.92,3.35q155.31,90,310.64,180.18c6.78,3.94,5.66,2.1,5.66,9.69V1580Z" transform="translate(-873.49 -206.29)"/><path class="cls-2" d="M2754,803.8c-83.27-48.08-166.76-95.79-249.73-144.37S2337.9,563.61,2255,515.07c1.58-2.13,3.74-2.88,5.62-4q44.76-26.14,89.54-52.17,9.11-5.31,18.13-10.76a4.31,4.31,0,0,1,5-.05c6.23,3.66,12.58,7.12,18.83,10.77q65.16,37.68,130.34,75.51,25.51,14.79,51,29.67c19.1,11.09,38.37,21.87,57.28,33.29,14.61,8.82,29.4,17.32,44.15,25.87q72.2,41.85,144.48,83.53c16.68,9.65,33.27,19.45,50,29.09,20.86,12,41.82,23.95,62.67,36q36.75,21.28,73.39,42.76c1.38.77,2.7,1.69,4,2.51-.38,1.54-1.61,1.84-2.58,2.41q-7.53,4.43-15.09,8.82l-90,52.63c-1,.61-2.1,1.19-3.08,1.86a8.53,8.53,0,0,1-5.72,1.29q-33.64-2.79-67.29-5.38c-18.23-1.43-36.48-2.7-54.71-4.11-17.83-1.38-35.65-2.9-53.48-4.29-12.83-1-25.66-1.88-38.45-2.87s-25.63-2.09-38.44-3.08c-12-.94-24.05-1.83-36.06-2.76q-20.76-1.6-41.47-3.25l-35.46-2.74q-21.34-1.65-42.68-3.34c-12.42-1-24.85-1.85-37.27-2.81-13.22-1-26.44-2.1-39.66-3.13q-18-1.43-36.07-2.79-21-1.64-42.07-3.3c-12-.93-24-1.82-36.07-2.76-13.84-1.07-27.68-2.18-41.47-3.25-12.41-1-24.84-1.87-37.27-2.83-13.41-1-26.84-2.14-40.26-3.18q-17.72-1.39-35.46-2.74c-1.21-.09-2.41-.15-3.61-.13a1.8,1.8,0,0,0-.73.1,1.64,1.64,0,0,0-.62.41,1.5,1.5,0,0,0-.38.64,1.64,1.64,0,0,0-.07.73v1.81c0,12.46.09,24.92-.08,37.39,0,2.65,1,4,3.15,5.15,10.51,5.86,20.86,12,31.41,17.85,12.82,7.07,25.28,14.8,38,22.13q77.18,44.64,154.39,89.24c16.51,9.54,32.94,19.23,49.46,28.77,21.38,12.35,42.85,24.6,64.22,37q33.09,19.17,66.12,38.55c1.15.67,2.7.91,3.26,2.94-38.45,23-77.3,45.52-116.39,68.17-1.87-1.06-3.79-2.12-5.69-3.22q-73-42.29-145.92-84.64l-194-112.26Q1984.85,920,1888,863.69L1793.63,809c-8.69-5-17.45-9.93-26.14-14.91-1.71-1-3.36-2-4.91-3,.07-1.54,1.18-1.85,2-2.31,4.85-2.85,9.74-5.63,14.61-8.46,24.08-14.12,48.17-28.19,72.18-42.43a15.58,15.58,0,0,1,10.81-2.23c6.15.84,12.41,1.1,18.62,1.53l70.34,5.3q31,2.37,61.9,4.8l62.51,4.85,61.91,4.81,61.91,4.81c23.07,1.82,46.06,3.72,69.1,5.52,18.23,1.43,36.48,2.69,54.72,4.11,17.82,1.38,35.64,2.9,53.48,4.29,13,1,26.05,1.89,39.07,2.9,12.63,1,25.24,2.07,37.86,3.07s25.25,1.88,37.87,2.86c13,1,26,2.06,39.06,3.07l19.23,1.54c21.24,1.64,42.5,3,63.7,5,21,1.95,42.06,3.4,63.09,5q34.56,2.72,69.11,5.51c2.76.22,5.53.3,8.3.45Z" transform="translate(-873.49 -206.29)"/><path class="cls-2" d="M1476.14,1079.8c30.89-17.83,60.75-35.19,90.54-52.5L1656.85,975l89.31-51.8c1.79.59,1.37,1.75,1.37,2.63,0,18.46,0,37,.08,55.48a6.17,6.17,0,0,1-3.54,6.15c-22.64,13-45.18,26.2-67.75,39.33l-194.79,113.31c-6.37,3.71-5.39,1.74-5.39,9.23q0,97.4,0,194.77c0,1.61,0,3.22.11,4.82.07,1,.85,1.33,1.68.9,1.78-.92,3.5-2,5.24-3q162.87-94.48,325.77-188.94c2.14-1.25,4-3.42,6.92-3,1,2.31.45,4.71.45,7q0,64.53,0,129c0,7.17,1.09,5.46-5.39,9.27-26.14,15.38-52.16,31-78.56,45.9-43.18,24.42-85.62,50.11-128.66,74.74-60,34.32-119.24,69.84-179.11,104.31-33.59,19.33-67,39-100.51,58.44-1.32.76-2.49,2.12-4.75,1.59V841.89c0-9.71-1.66-6.92,7-11.9q89.07-51.86,178.16-103.6L1673.77,628q68-39.54,135.87-79.2c1.87-1.09,3.78-2.12,5.93-3.33,1.11,1.71.72,3.32.72,4.79q0,56.38,0,112.77c0,7.23-.14,14.47.06,21.7.09,3-1,4.62-3.6,6.11-14.84,8.46-29.54,17.14-44.3,25.72q-99.73,58-199.48,116-44.25,25.77-88.42,51.74a16.69,16.69,0,0,1-2.09,1.21c-2,.83-2.51,2.39-2.36,4.38.09,1,0,2,0,3v186.9Z" transform="translate(-873.49 -206.29)"/><path class="cls-2" d="M1801.58,482.11c-.92,1.95-2.58,2.39-3.94,3.18-32.22,18.89-64.25,38.11-96.74,56.53-41.05,23.28-81.42,47.71-122.39,71.1-43.77,25-87.11,50.7-130.66,76.06-16.84,9.79-33.51,19.88-50.46,29.47-35,19.77-69.39,40.43-104.13,60.57-.87.5-1.73,1-2.6,1.54a3.28,3.28,0,0,1-1.73.44,3.2,3.2,0,0,1-1.69-.55c-1.37-.82-2.78-1.61-4.17-2.41l-342.3-198.7c-1.7-1-3.34-2.06-5.22-3.22,1.32-2.07,3.33-2.67,5-3.64q27.29-15.94,54.67-31.78l125-72.69q84.64-49.2,169.29-98.37,76.55-44.53,153-89.2c6.93-4,4.7-4.05,11.75,0q170.16,98.7,340.25,197.45Z" transform="translate(-873.49 -206.29)"/><path class="cls-2" d="M1807.86,888.62c2-.51,2.93.5,3.91,1.07,18.9,11,37.72,22.17,56.66,33.13q74.8,43.3,149.69,86.49c17.19,10,34.25,20.13,51.45,30.08q70.91,41,141.87,81.95c16.33,9.44,32.57,19.05,48.91,28.45,21.73,12.55,43.56,24.94,65.27,37.52,21.89,12.67,43.7,25.49,65.55,38.24.86.51,1.73,1,2.61,1.54a3,3,0,0,1,1.31,1.2,3.15,3.15,0,0,1,.43,1.72v342.4c0,6.38.77,7.17-5.58,3.46q-56.24-32.73-112.54-65.32-98-56.74-196-113.47-96.17-55.69-192.32-111.43c-3.46-2-7-3.89-10.54-5.82a3.39,3.39,0,0,1-1.51-1.39,3.43,3.43,0,0,1-.43-2c.09-1.61,0-3.22,0-4.83V1056.38c1.08-5.16-1.46-7.74-5.85-10.21-19.22-10.81-38.28-22-57.39-33.12-1.38-.76-2.78-1.61-4.14-2.46a2.67,2.67,0,0,1-1-1.05,2.7,2.7,0,0,1-.33-1.44V888.62Z" transform="translate(-873.49 -206.29)"/><path class="cls-2" d="M2605.42,1293.23V1081a24.17,24.17,0,0,1,0-3.61c.52-3.46-1-5.32-4-7.06q-89.4-51.78-178.68-103.8-55-31.91-110-63.63c-1.54-.89-3.29-1.54-4.46-3,.06-1.35,1.09-.89,1.72-.85,12.22,1,24.43,2,36.64,3,11.82.94,23.64,1.82,35.46,2.75l42.67,3.33c12.42,1,24.84,1.85,37.27,2.81q19.81,1.54,39.65,3.15l18.63,1.46,60.7,4.72c13,1,26.05,1.87,39.08,2.89,17.82,1.38,35.64,2.88,53.47,4.28,12.62,1,25.25,1.87,37.87,2.85,13,1,26,2.08,39.06,3.07,12,1,24,1.85,36.05,2.79l42.07,3.29q18.33,1.42,36.66,2.79c5.38.41,10.82.81,16.23,1.26,2.07.17,2.45.55,2.53,2.52.07,1.61,0,3.22,0,4.83v356.9c0,8,1.14,7.35-7.53,6.52-6.61-.63-13.22-1.09-19.83-1.6q-30-2.31-60.1-4.68c-12.82-1-25.65-1.86-38.45-2.85s-25.63-2.1-38.44-3.08c-12.42-1-24.85-1.85-37.27-2.81-13.22-1-26.44-2.11-39.66-3.14-7.41-.58-14.83-1.1-22.24-1.68C2615.71,1294.13,2610.91,1293.7,2605.42,1293.23Z" transform="translate(-873.49 -206.29)"/><path class="cls-2" d="M2455.84,1588.08V1234.62c0-7.17-1.14-5.43,5.38-9.23q39-22.76,78.07-45.45c1.22-.71,2.41-1.46,3.65-2.12s2.07-.17,2.11,1c.07,1.81,0,3.61,0,5.38v345.35a16.16,16.16,0,0,0,0,2.41c.56,3.46-.9,5.53-4,7.07-4.13,2.07-8,4.56-12,6.93l-67,39.29C2460.38,1586.26,2458.83,1587.61,2455.84,1588.08Z" transform="translate(-873.49 -206.29)"/><path class="cls-2" d="M2944.38,1309.87V930.69c0-1.21,0-2.41,0-3.62a3,3,0,0,1,1.72-2.92c.87-.47,1.73-1,2.59-1.54l50-29.1a25.39,25.39,0,0,1,3.18-1.68c.89-.36,1.54.14,1.58,1.1.07,1.6.07,3.21.07,4.82v372.54a6.12,6.12,0,0,0,0,1.21c.59,3.46-.9,5.52-4,7.07-4.13,2-8,4.55-12,6.92q-19.23,11.31-38.38,22.65C2947.77,1308.9,2946.55,1310.07,2944.38,1309.87Z" transform="translate(-873.49 -206.29)"/><path class="cls-2" d="M1536.85,1245.69c-.71-1.27-.38-2.69-.38-4v-61.48c-.13-2,.32-3.52,2.38-4.34A24.78,24.78,0,0,0,1542,1174l209.42-121.49c1-.6,2.14-1.12,3.13-1.8,1.36-1,2.53-.66,3.84.11q28.1,16.41,56.19,32.75a2.19,2.19,0,0,1,.42.44,2.81,2.81,0,0,1-.16.49,1.12,1.12,0,0,1-.36.47q-137.64,80.14-275.35,160.26a8.12,8.12,0,0,1-1.63.64C1537.29,1245.91,1537.07,1245.76,1536.85,1245.69Z" transform="translate(-873.49 -206.29)"/><path class="cls-2" d="M2482.07,723.05c-9.23-.62-18.46-1.19-27.68-1.87-7.22-.53-14.43-1.21-21.63-1.78l-59.51-4.62c-12.83-1-25.66-1.87-38.45-2.87s-25.63-2.08-38.44-3.07q-18.65-1.46-37.28-2.83c-6.81-.51-13.63-1-20.44-1.54-3.17-.25-3.42-.59-3.51-3.58V576.05c0-1.2.95-1.85,1.93-1.34,1.42.77,2.81,1.54,4.2,2.34l86,49.91c18.23,10.6,36.41,21.27,54.64,31.84s36.71,20.76,54.71,31.71c17.5,10.64,35.37,20.61,53,31.1C2487.67,725.29,2484.62,722.88,2482.07,723.05Z" transform="translate(-873.49 -206.29)"/><path class="cls-2" d="M1747,853.33l-209.1,121.56c-1.77-.58-1.39-1.73-1.4-2.63,0-15.86.06-31.73-.08-47.59a5.72,5.72,0,0,1,3.3-5.67c17.75-10.2,35.44-20.52,53.12-30.79q51-29.62,102.08-59.21c6.23-3.62,4.33-3.55,10.67.08,12.54,7.18,25,14.47,37.51,21.73C1744.09,851.42,1745.06,852.09,1747,853.33Z" transform="translate(-873.49 -206.29)"/><path class="cls-3" d="M2482.07,723.05c1.46-.61,3-.3,4.49-.3,1.14,0,2.3,0,3-1.14a3.37,3.37,0,0,1,1.43.3,3.45,3.45,0,0,1,1.18.86c.13.13.39.33.36.4-.15.32-.36.84-.57.85C2488.6,724.16,2485.26,724.37,2482.07,723.05Z" transform="translate(-873.49 -206.29)"/><path class="cls-4" d="M4034.65,1398.35q-158.12,0-260.5-100.44t-102.38-261.14q0-151.62,97.19-256.59t246.25-105q164.58,0,251.42,108.86t86.83,268.27q0,15.56-2.59,51.84H3867.46q14.25,66.1,58.33,101.1t111.45,35q92,0,168.49-71.28l112.75,99.8Q4213.48,1398.36,4034.65,1398.35ZM3864.87,981h296.78q-9.07-67.38-47.3-107.56t-99.14-40.18q-59.62,0-99.15,39.53T3864.87,981Z" transform="translate(-873.49 -206.29)"/><path class="cls-4" d="M4499.9,1382.8V688.15h197v98.5q86.81-111.45,203.47-111.46,111.44,0,173.65,68.69t62.22,189.2V1382.8h-197V995.3q0-68.67-31.11-105T4820,854q-57,0-90.06,36.29t-33.05,105v387.5Z" transform="translate(-873.49 -206.29)"/><path class="cls-4" d="M5917.05,1293.38q-108.21,105-268.92,105T5380.51,1294q-106.92-104.31-106.91-257.25,0-151.62,108.2-256.59t268.93-105q160.68,0,267.62,104.33t106.92,257.25Q6025.27,1188.42,5917.05,1293.38Zm-266.32-64.8q81.65,0,130.9-55.07t49.25-136.74q0-79-51.2-135.44T5648.13,845q-81.66,0-130.89,55.08T5468,1036.77q0,79.08,51.19,135.44T5650.73,1228.58Z" transform="translate(-873.49 -206.29)"/><path class="cls-4" d="M6176.89,1382.8V436.73h197V1382.8Z" transform="translate(-873.49 -206.29)"/><path class="cls-4" d="M6888.38,1398.35q-158.11,0-260.5-100.44T6525.5,1036.77q0-151.62,97.19-256.59t246.25-105q164.58,0,251.42,108.86t86.83,268.27q0,15.56-2.59,51.84H6721.19q14.25,66.1,58.33,101.1t111.45,35q92,0,168.48-71.28l112.75,99.8Q7067.2,1398.36,6888.38,1398.35ZM6718.6,981h296.78q-9.07-67.38-47.3-107.56t-99.14-40.18q-59.62,0-99.16,39.53T6718.6,981Z" transform="translate(-873.49 -206.29)"/><path class="cls-4" d="M7353.63,1382.8V688.15h197v98.5q86.8-111.45,204.76-111.46,138.66,0,195.69,110.16,94.59-110.16,228.11-110.16,111.44,0,173,65.46t61.56,189.86V1382.8h-197V995.3q0-141.25-115.35-141.26-55.72,0-87.48,36.29t-31.75,105v387.5h-197V995.3Q7785.2,854,7669.86,854q-55.74,0-87.48,36.29t-31.75,105v387.5Z" transform="translate(-873.49 -206.29)"/><path class="cls-4" d="M8815.51,1395.76q-111.46,0-173.67-68.69t-62.2-189.2V688.15h197v387.5q0,68.68,31.09,105t88.12,36.28q57,0,90.08-36.28t33-105V688.15h197V1382.8H9019v-98.5Q8932.15,1395.78,8815.51,1395.76Z" transform="translate(-873.49 -206.29)"/><path class="cls-4" d="M9392.21,1382.8V688.15h197v98.5Q9676,675.2,9794,675.19q138.65,0,195.68,110.16,94.6-110.16,228.11-110.16,111.45,0,173,65.46t61.57,189.86V1382.8h-197V995.3Q10255.35,854,10140,854q-55.74,0-87.49,36.29t-31.75,105v387.5h-197V995.3q0-141.25-115.34-141.26-55.74,0-87.49,36.29t-31.75,105v387.5Z" transform="translate(-873.49 -206.29)"/><path class="cls-4" d="M10627.3,611.68V436.73h207.36V611.68Zm5.19,771.12V688.15h197V1382.8Z" transform="translate(-873.49 -206.29)"/></svg>