<svg width="2849" height="1910" viewBox="0 0 2849 1910" fill="none" xmlns="http://www.w3.org/2000/svg">
<path d="M746.18 0H749.32C763.32 3.94 775.15 12.37 787.49 19.53C898.463 84.01 1009.46 148.427 1120.49 212.78C1179.45 247.093 1238.48 281.287 1297.58 315.36C1305.97 320.2 1309.07 325.97 1309.04 335.44C1308.79 420.64 1308.89 505.84 1308.9 591.04C1308.9 593.14 1308.9 595.23 1308.9 597.32C1308.99 608.63 1309.07 608.26 1320.11 609.16C1350.81 611.66 1381.54 613.94 1412.25 616.33C1442.18 618.67 1472.12 621.05 1502.06 623.28C1525.75 625.04 1549.44 626.98 1573.12 628.8C1596.03 630.56 1618.93 632.41 1641.84 634.19C1654.07 635.14 1666.31 636.06 1678.54 637.1C1690.54 638.1 1691.07 637.32 1691.07 625.55C1691.07 545.31 1691.23 465.07 1690.88 384.84C1690.83 374.21 1694.06 367.84 1703.54 362.3C1782.16 316.06 1861.02 270.21 1939.64 223.96C1946.87 219.7 1952.64 219.78 1959.85 223.96C2045.85 274.13 2131.85 324.48 2218.21 373.96C2345.68 446.96 2472.06 521.85 2599.36 595.15C2679.99 641.577 2760.48 688.243 2840.85 735.15C2843.8 736.834 2846.36 739.117 2848.37 741.85V1436.68C2846.78 1439.89 2843.97 1441.68 2840.99 1443.43C2794.79 1470.58 2748.33 1497.29 2702.15 1524.43C2697.26 1527.31 2692.15 1529.11 2686.52 1528.52C2658.99 1525.7 2631.33 1524.39 2603.78 1521.58C2580.68 1519.22 2557.46 1517.93 2534.29 1516.12C2503.57 1513.73 2472.85 1511.45 2442.15 1508.93C2418.73 1507.01 2395.29 1505.35 2371.86 1503.54C2347.66 1501.67 2323.44 1499.9 2299.25 1497.89C2286.76 1496.89 2274.25 1495.89 2261.75 1495.02C2257.81 1494.76 2256.61 1496.51 2256.48 1499.93C2256.38 1502.54 2256.4 1505.16 2256.4 1507.77C2256.4 1591.93 2256.24 1676.09 2256.59 1760.26C2256.59 1771.26 2252.96 1777.72 2243.27 1783.33C2175.42 1822.66 2107.65 1862.12 2039.97 1901.71C2032.74 1905.96 2026.8 1905.96 2019.64 1901.77C1952.17 1862.33 1884.76 1822.77 1816.97 1783.9C1733.08 1735.77 1649.82 1686.57 1565.88 1638.54C1485.11 1592.34 1405.12 1544.79 1324.43 1498.45C1314.91 1492.98 1305.01 1488.17 1295.8 1482.18C1290.35 1478.64 1285.53 1478.82 1279.8 1482.18C1235.8 1507.89 1191.64 1533.36 1147.63 1559.08C1056.23 1612.5 964.74 1665.76 873.16 1718.85C791.76 1766.06 710.427 1813.36 629.16 1860.77C606.33 1874.04 583.43 1887.18 560.69 1900.59C554.949 1904.17 548.731 1906.93 542.22 1908.78H540.66C518.87 1899.78 499.37 1886.48 479.09 1874.78C372.87 1813.27 266.69 1751.68 160.55 1690C111.09 1661.28 61.6233 1632.56 12.15 1603.84C8.06 1601.45 2.65 1599.9 2.6 1593.55C2.53333 1241.85 2.51 890.157 2.53 538.47C2.53 534.1 3.53 529.54 1 525.47V434.47C10.64 425.9 22.08 420 33.08 413.6C80.46 385.93 127.6 357.85 175.18 330.53C256.08 284.1 336.09 236.16 417 189.68C470.91 158.68 524.17 126.56 578.28 95.94C631 66.08 682.85 34.7 735.44 4.56C738.9 2.58 742.87 2.15 746.18 0Z" fill="url(#paint0_linear_140_217)"/>
<path d="M502.39 1794.42C499.01 1794.37 497.03 1792.42 494.87 1791.22C458.25 1770.02 421.65 1748.78 385.07 1727.51C286.804 1670.49 188.537 1613.46 90.2703 1556.42C78.8103 1549.76 81.0103 1553.37 81.0103 1540.21C80.957 1221.31 80.957 902.41 81.0103 583.51C81.0103 580.04 79.7703 576.33 82.0103 573.04C85.5903 573.26 88.1103 575.74 91.0103 577.4C225.677 655.473 360.344 733.583 495.01 811.73C503.83 816.85 502.37 814.46 502.37 824.33C502.37 1145.06 502.37 1465.78 502.37 1786.51L502.39 1794.42Z" fill="white"/>
<path d="M2446.6 777.08C2338.31 714.55 2229.73 652.5 2121.82 589.32C2014.11 526.24 1905.51 464.71 1797.72 401.58C1799.78 398.81 1802.58 397.83 1805.03 396.4C1843.83 373.733 1882.65 351.12 1921.48 328.56C1929.37 323.947 1937.23 319.28 1945.06 314.56C1946 313.887 1947.12 313.52 1948.27 313.509C1949.42 313.499 1950.55 313.845 1951.5 314.5C1959.61 319.25 1967.87 323.75 1976 328.5C2032.49 361.167 2088.99 393.9 2145.5 426.7C2167.63 439.527 2189.75 452.39 2211.84 465.29C2236.68 479.71 2261.75 493.74 2286.34 508.58C2305.34 520.05 2324.57 531.11 2343.76 542.23C2406.35 578.517 2468.99 614.727 2531.66 650.86C2553.35 663.41 2574.93 676.16 2596.66 688.69C2623.79 704.37 2651.04 719.84 2678.16 735.54C2710.03 754 2741.84 772.537 2773.61 791.15C2775.4 792.15 2777.12 793.35 2778.8 794.42C2778.3 796.42 2776.7 796.81 2775.44 797.55C2768.91 801.39 2762.36 805.19 2755.82 809.02L2638.82 877.46C2637.47 878.26 2636.09 879.01 2634.82 879.88C2632.62 881.3 2629.98 881.895 2627.38 881.56C2598.21 879.147 2569.03 876.813 2539.86 874.56C2516.15 872.71 2492.42 871.06 2468.71 869.22C2445.52 867.43 2422.35 865.45 2399.16 863.64C2382.48 862.33 2365.79 861.2 2349.16 859.91C2332.53 858.62 2315.82 857.19 2299.16 855.91C2283.53 854.68 2267.89 853.53 2252.26 852.32C2234.26 850.927 2216.28 849.517 2198.33 848.09C2182.96 846.89 2167.59 845.703 2152.21 844.53C2133.71 843.09 2115.21 841.64 2096.71 840.18C2080.56 838.94 2064.39 837.78 2048.24 836.53C2031.04 835.2 2013.85 833.79 1996.66 832.45C1981.02 831.217 1965.38 830.01 1949.75 828.83C1931.51 827.41 1913.27 825.98 1895.04 824.54C1879.41 823.33 1863.77 822.17 1848.13 820.95C1830.13 819.56 1812.13 818.11 1794.2 816.72C1778.05 815.47 1761.89 814.29 1745.73 813.04C1728.28 811.68 1710.82 810.26 1693.37 808.9C1678 807.687 1662.62 806.5 1647.25 805.34C1645.68 805.22 1644.11 805.15 1642.55 805.17C1642.23 805.143 1641.9 805.19 1641.6 805.305C1641.29 805.42 1641.02 805.602 1640.8 805.837C1640.57 806.072 1640.4 806.354 1640.3 806.662C1640.2 806.971 1640.17 807.298 1640.21 807.62C1640.21 808.4 1640.21 809.19 1640.21 809.97C1640.21 826.18 1640.33 842.38 1640.11 858.59C1640.11 862.04 1641.43 863.74 1644.2 865.29C1657.88 872.92 1671.33 880.94 1685.05 888.51C1701.73 897.7 1717.93 907.75 1734.42 917.29C1801.34 955.997 1868.27 994.683 1935.21 1033.35C1956.68 1045.76 1978.05 1058.35 1999.53 1070.76C2027.34 1086.83 2055.26 1102.76 2083.05 1118.82C2111.75 1135.44 2140.42 1152.15 2169.05 1168.95C2170.54 1169.82 2172.55 1170.13 2173.28 1172.77C2123.28 1202.71 2072.75 1231.97 2021.92 1261.43C2019.49 1260.06 2016.99 1258.68 2014.52 1257.25C1951.26 1220.58 1888 1183.89 1824.74 1147.17C1740.68 1098.5 1656.6 1049.84 1572.5 1001.17C1488.4 952.503 1404.35 903.77 1320.36 854.97C1279.46 831.25 1238.56 807.537 1197.67 783.83C1186.37 777.28 1174.98 770.92 1163.67 764.44C1161.45 763.18 1159.3 761.79 1157.29 760.56C1157.38 758.56 1158.82 758.16 1159.88 757.56C1166.18 753.85 1172.54 750.23 1178.88 746.56C1210.19 728.19 1241.53 709.89 1272.75 691.37C1276.93 688.725 1281.93 687.694 1286.81 688.47C1294.81 689.57 1302.95 689.9 1311.02 690.47C1341.52 692.77 1372.01 695.067 1402.5 697.36C1429.34 699.407 1456.18 701.487 1483.01 703.6L1564.3 709.91L1644.82 716.16C1671.65 718.24 1698.48 720.327 1725.33 722.42C1755.33 724.79 1785.24 727.26 1815.2 729.6C1838.91 731.45 1862.64 733.1 1886.36 734.94C1909.54 736.74 1932.72 738.71 1955.91 740.52C1972.84 741.84 1989.79 742.98 2006.73 744.29C2023.15 745.56 2039.55 746.99 2055.96 748.29C2072.37 749.59 2088.8 750.73 2105.22 752C2122.15 753.31 2139.08 754.69 2156.02 756L2181.02 758C2208.64 760.13 2236.29 761.93 2263.87 764.48C2291.2 767.01 2318.57 768.9 2345.92 771.04C2375.88 773.4 2405.84 775.79 2435.79 778.21C2439.39 778.5 2442.99 778.6 2446.59 778.79L2446.6 777.08Z" fill="white"/>
<path d="M784.77 1136.03C824.94 1112.83 863.77 1090.26 902.52 1067.74C941.606 1045.07 980.693 1022.41 1019.78 999.74L1135.94 932.37C1138.26 933.14 1137.72 934.65 1137.72 935.8C1137.72 959.8 1137.72 983.9 1137.82 1007.95C1137.82 1011.8 1136.64 1013.95 1133.21 1015.95C1103.77 1032.87 1074.46 1050.02 1045.11 1067.09C960.663 1116.21 876.216 1165.33 791.77 1214.46C783.49 1219.28 784.77 1216.72 784.77 1226.46C784.73 1310.9 784.73 1395.34 784.77 1479.77C784.77 1481.86 784.77 1483.95 784.91 1486.04C785 1487.37 786.01 1487.77 787.1 1487.21C789.41 1486.01 791.65 1484.66 793.91 1483.35C935.123 1401.43 1076.35 1319.52 1217.58 1237.63C1220.37 1236.01 1222.78 1233.19 1226.58 1233.71C1227.9 1236.71 1227.16 1239.83 1227.16 1242.87C1227.21 1298.82 1227.21 1354.76 1227.16 1410.7C1227.16 1420.02 1228.58 1417.79 1220.16 1422.75C1186.16 1442.75 1152.32 1463.03 1117.99 1482.44C1061.83 1514.2 1006.64 1547.61 950.66 1579.65C872.66 1624.28 795.59 1670.47 717.72 1715.3C674.04 1740.44 630.64 1766.09 587.01 1791.3C585.29 1792.3 583.77 1794.06 580.83 1793.38V1621.05C580.83 1356.24 580.83 1091.43 580.83 826.62C580.83 813.99 578.67 817.62 589.9 811.14C667.12 766.18 744.353 721.27 821.6 676.41C894.986 633.743 968.383 591.077 1041.79 548.41C1100.71 514.13 1159.61 479.797 1218.49 445.41C1220.92 443.99 1223.41 442.65 1226.21 441.08C1227.65 443.3 1227.14 445.39 1227.14 447.31C1227.18 496.19 1227.18 545.073 1227.14 593.96C1227.14 603.37 1226.96 612.79 1227.22 622.19C1227.33 626.11 1225.91 628.19 1222.53 630.13C1203.24 641.13 1184.12 652.42 1164.92 663.58C1078.45 713.893 991.98 764.2 905.5 814.5C867.126 836.833 828.793 859.263 790.5 881.79C789.633 882.374 788.728 882.899 787.79 883.36C785.2 884.44 784.52 886.46 784.72 889.05C784.83 890.35 784.72 891.66 784.72 892.97V1136.04L784.77 1136.03Z" fill="white"/>
<path d="M1208.01 358.71C1206.81 361.25 1204.65 361.82 1202.89 362.85C1160.98 387.41 1119.32 412.41 1077.07 436.37C1023.68 466.64 971.19 498.42 917.9 528.84C860.98 561.33 804.61 594.77 747.97 627.75C726.08 640.49 704.4 653.61 682.35 666.08C636.89 691.79 592.11 718.66 546.93 744.85C545.8 745.5 544.68 746.18 543.54 746.85C542.862 747.25 542.085 747.449 541.299 747.424C540.513 747.399 539.75 747.152 539.1 746.71C537.31 745.64 535.48 744.62 533.68 743.58L88.4997 485.16C86.2997 483.88 84.1597 482.49 81.7197 480.98C83.4297 478.28 86.0497 477.5 88.1997 476.24C111.866 462.413 135.57 448.637 159.31 434.91C213.49 403.397 267.67 371.887 321.85 340.38C395.23 297.713 468.616 255.067 542.01 212.44C608.37 173.833 674.703 135.167 741.01 96.44C750.01 91.21 747.12 91.17 756.29 96.44C903.81 182.007 1051.31 267.6 1198.79 353.22L1208.01 358.71Z" fill="white"/>
<path d="M1216.18 887.39C1218.83 886.73 1219.99 888.04 1221.26 888.78C1245.84 903.11 1270.32 917.61 1294.95 931.87C1359.81 969.41 1424.7 1006.9 1489.62 1044.35C1511.98 1057.29 1534.17 1070.53 1556.54 1083.47C1618.01 1119.04 1679.51 1154.56 1741.04 1190.05C1762.28 1202.33 1783.4 1214.82 1804.65 1227.05C1832.91 1243.37 1861.3 1259.48 1889.54 1275.84C1918.01 1292.32 1946.37 1308.99 1974.78 1325.58C1975.91 1326.24 1977.04 1326.89 1978.18 1327.58C1978.89 1327.92 1979.48 1328.46 1979.88 1329.14C1980.28 1329.81 1980.48 1330.59 1980.44 1331.37C1980.44 1333.2 1980.44 1335.03 1980.44 1336.86C1980.44 1483.47 1980.44 1630.08 1980.44 1776.68C1980.44 1784.97 1981.44 1786 1973.18 1781.17C1924.43 1752.8 1875.65 1724.48 1826.83 1696.23C1741.87 1647.02 1656.9 1597.83 1571.92 1548.66C1488.54 1500.37 1405.17 1452.06 1321.81 1403.74C1317.3 1401.12 1312.68 1398.68 1308.1 1396.17C1307.27 1395.78 1306.59 1395.15 1306.13 1394.36C1305.68 1393.56 1305.49 1392.65 1305.58 1391.74C1305.69 1389.65 1305.58 1387.56 1305.58 1385.46V1105.56C1306.98 1098.86 1303.67 1095.5 1297.97 1092.29C1272.97 1078.23 1248.18 1063.63 1223.33 1049.22C1221.53 1048.22 1219.72 1047.12 1217.95 1046.02C1217.38 1045.7 1216.92 1045.22 1216.6 1044.65C1216.29 1044.07 1216.14 1043.42 1216.18 1042.77C1216.18 1041.46 1216.18 1040.15 1216.18 1038.85C1216.18 989.983 1216.18 941.113 1216.18 892.24V887.39Z" fill="white"/>
<path d="M2253.42 1413.59V1137.64C2253.3 1136.08 2253.3 1134.5 2253.42 1132.94C2254.1 1128.44 2252.11 1126.02 2248.21 1123.76C2170.7 1078.86 2093.24 1033.86 2015.83 988.76C1968.18 961.1 1920.49 933.517 1872.74 906.01C1870.74 904.86 1868.47 904.01 1866.95 902.16C1867.03 900.41 1868.37 901 1869.18 901.06C1885.07 902.31 1900.95 903.65 1916.84 904.91C1932.21 906.13 1947.58 907.28 1962.95 908.48C1981.45 909.91 1999.95 911.39 2018.44 912.81C2034.6 914.05 2050.75 915.22 2066.91 916.47C2084.1 917.803 2101.29 919.167 2118.48 920.56L2142.71 922.47C2169.02 924.523 2195.34 926.567 2221.65 928.6C2238.59 929.89 2255.53 931.04 2272.47 932.36C2295.65 934.16 2318.83 936.11 2342.01 937.93C2358.43 939.21 2374.85 940.36 2391.26 941.63C2408.2 942.94 2425.12 944.34 2442.06 945.63C2457.69 946.86 2473.32 948.03 2488.95 949.25C2507.19 950.67 2525.43 952.1 2543.66 953.54C2559.55 954.773 2575.45 955.98 2591.34 957.16C2598.34 957.69 2605.41 958.22 2612.45 958.8C2615.14 959.02 2615.63 959.51 2615.74 962.08C2615.83 964.17 2615.74 966.27 2615.74 968.36C2615.74 1123.08 2615.74 1277.8 2615.74 1432.52C2615.74 1442.93 2617.22 1442.08 2605.94 1441C2597.35 1440.18 2588.75 1439.58 2580.15 1438.91C2554.1 1436.91 2528.04 1434.88 2501.99 1432.83C2485.32 1431.55 2468.63 1430.41 2451.99 1429.12C2435.35 1427.83 2418.65 1426.39 2401.99 1425.12C2385.84 1423.85 2369.68 1422.71 2353.52 1421.46C2336.33 1420.12 2319.14 1418.72 2301.95 1417.38C2292.31 1416.62 2282.66 1415.95 2273.02 1415.2C2266.8 1414.76 2260.56 1414.2 2253.42 1413.59Z" fill="white"/>
<path d="M2058.89 1797.06V1788.86C2058.89 1638.37 2058.89 1487.88 2058.89 1337.37C2058.89 1328.04 2057.41 1330.31 2065.89 1325.37C2099.72 1305.64 2133.56 1285.93 2167.42 1266.26C2169 1265.34 2170.55 1264.36 2172.16 1263.5C2173.77 1262.64 2174.86 1263.28 2174.91 1264.8C2175 1267.15 2174.98 1269.5 2174.98 1271.8C2174.98 1421.52 2174.98 1571.23 2174.98 1720.94C2174.9 1721.98 2174.9 1723.03 2174.98 1724.07C2175.71 1728.57 2173.81 1731.26 2169.76 1733.27C2164.39 1735.95 2159.31 1739.19 2154.13 1742.27C2125.09 1759.3 2096.04 1776.34 2066.99 1793.37C2064.8 1794.69 2062.78 1796.44 2058.89 1797.06Z" fill="white"/>
<path d="M2694.25 1435.23V942.1C2694.25 940.53 2694.3 938.97 2694.25 937.4C2694.2 936.616 2694.38 935.833 2694.78 935.155C2695.17 934.477 2695.77 933.935 2696.48 933.6C2697.62 932.98 2698.73 932.28 2699.85 931.6C2721.51 918.98 2743.18 906.363 2764.85 893.75C2766.18 892.924 2767.56 892.192 2768.99 891.56C2770.15 891.09 2770.99 891.74 2771.04 893C2771.13 895.08 2771.13 897.17 2771.13 899.26V1383.76C2771.08 1384.28 2771.08 1384.81 2771.13 1385.33C2771.9 1389.83 2769.97 1392.51 2765.92 1394.53C2760.55 1397.2 2755.46 1400.44 2750.29 1403.53C2733.62 1413.34 2716.99 1423.16 2700.38 1432.99C2698.66 1433.98 2697.07 1435.5 2694.25 1435.23Z" fill="white"/>
<path d="M863.72 1351.77C862.8 1350.11 863.23 1348.27 863.23 1346.51C863.23 1320.64 863.23 1294.78 863.23 1268.91C863.23 1268.13 863.23 1267.34 863.23 1266.56C863.06 1264.01 863.64 1261.98 866.32 1260.91C867.726 1260.22 869.079 1259.43 870.37 1258.54L1142.72 1100.54C1144.08 1099.76 1145.51 1099.09 1146.79 1098.2C1148.56 1096.97 1150.09 1097.34 1151.79 1098.35C1176.14 1112.57 1200.5 1126.77 1224.87 1140.94C1225.07 1141.1 1225.26 1141.3 1225.41 1141.51C1225.36 1141.73 1225.29 1141.94 1225.2 1142.15C1225.1 1142.39 1224.94 1142.6 1224.73 1142.76C1105.4 1212.25 986.03 1281.73 866.63 1351.18C865.956 1351.54 865.245 1351.82 864.51 1352.02C864.3 1352.06 864.01 1351.86 863.72 1351.77Z" fill="white"/>
<path d="M2093 672.06C2081 671.25 2069 670.51 2057 669.63C2047.61 668.94 2038.24 668.05 2028.87 667.31C2003.07 665.31 1977.27 663.31 1951.48 661.31C1934.8 660.03 1918.11 658.87 1901.48 657.58C1884.85 656.29 1868.14 654.87 1851.48 653.58C1835.32 652.32 1819.16 651.093 1803 649.9C1794.14 649.24 1785.27 648.65 1776.42 647.9C1772.3 647.57 1771.97 647.13 1771.85 643.24C1771.85 641.94 1771.85 640.63 1771.85 639.32V486.38C1771.85 484.55 1771.85 482.72 1771.85 480.89C1771.9 479.33 1773.09 478.48 1774.36 479.14C1776.21 480.14 1778.02 481.14 1779.82 482.19C1817.1 503.83 1854.37 525.467 1891.64 547.1C1915.35 560.88 1939 574.75 1962.71 588.5C1986.42 602.25 2010.44 615.5 2033.86 629.74C2056.62 643.58 2079.86 656.54 2102.74 670.19C2100.29 674.98 2096.32 671.84 2093 672.06Z" fill="white"/>
<path d="M1136.99 841.5L865.05 999.59C862.75 998.83 863.24 997.33 863.23 996.17C863.23 975.54 863.3 954.9 863.12 934.27C863.12 930.64 864.34 928.67 867.42 926.9C890.5 913.64 913.5 900.21 936.5 886.85C980.74 861.17 1024.99 835.503 1069.25 809.85C1077.36 805.15 1074.89 805.23 1083.13 809.96C1099.44 819.3 1115.66 828.78 1131.91 838.22C1133.24 839.01 1134.5 839.88 1136.99 841.5Z" fill="white"/>
<path d="M2093 672.06C2094.9 671.27 2096.88 671.67 2098.84 671.67C2100.33 671.67 2101.84 671.67 2102.73 670.19C2103.37 670.182 2104.01 670.313 2104.59 670.574C2105.18 670.835 2105.7 671.219 2106.12 671.7C2106.3 671.86 2106.63 672.13 2106.59 672.22C2106.4 672.63 2106.12 673.31 2105.85 673.32C2101.5 673.5 2097.15 673.78 2093 672.06Z" fill="#BEC1C4"/>
<defs>
<linearGradient id="paint0_linear_140_217" x1="2891.5" y1="20.0001" x2="14.0204" y2="1590.47" gradientUnits="userSpaceOnUse">
<stop stop-color="#176DEA"/>
<stop offset="1" stop-color="#2F59CA"/>
</linearGradient>
</defs>
</svg>
